<?xml version="1.0" encoding="UTF-8"?>
<svg xmlns="http://www.w3.org/2000/svg" xmlns:xlink="http://www.w3.org/1999/xlink" width="16px" height="16px" viewBox="0 0 16 16" version="1.1">
<g id="surface1">
<path style="fill-rule:nonzero;fill:rgb(5.882353%,85.490196%,49.803922%);fill-opacity:1;stroke-width:1.05103;stroke-linecap:round;stroke-linejoin:round;stroke:rgb(0%,0%,0%);stroke-opacity:1;stroke-miterlimit:4;" d="M 573.804982 71.293817 C 562.569299 71.293817 551.94927 75.760001 544.099684 83.614327 L 269.21024 358.669711 L 201.950057 226.224229 C 185.481316 209.745547 158.854287 209.745547 142.385547 226.224229 C 126.07072 242.548905 126.07072 269.192008 142.385547 285.67069 L 239.504942 447.839402 C 255.819769 464.318084 282.446798 464.318084 298.915538 447.839402 L 603.51028 143.060787 C 619.97902 126.736111 619.97902 100.093009 603.51028 83.614327 C 595.660693 75.760001 584.886751 71.293817 573.804982 71.293817 Z M 297.376404 -12.793664 C 216.879663 -12.023632 137.460316 19.701681 77.587979 79.456154 C -23.071425 180.33033 -43.695829 336.800806 27.566104 460.313918 C 98.828037 583.82703 244.584086 644.197529 382.182721 607.390006 C 519.781357 570.428476 615.823357 445.221294 615.823357 302.611391 C 615.823357 279.356428 597.045915 260.567651 573.804982 260.567651 C 550.564049 260.567651 531.786607 279.356428 531.786607 302.611391 C 531.786607 407.489732 461.602068 498.969518 360.32701 526.07464 C 259.205865 553.333768 152.851662 509.133939 100.367172 418.270178 C 47.882681 327.406417 62.9662 213.133687 137.152489 138.902615 C 211.184865 64.671543 325.388654 49.732924 416.197596 102.095091 C 436.206346 113.799576 461.909895 106.869289 473.607318 86.84846 C 485.150828 66.673625 478.378635 40.954561 458.215972 29.404083 C 408.040183 0.450884 352.477423 -13.409689 297.376404 -12.793664 Z M 297.376404 -12.793664 " transform="matrix(0.0253795,0,0,0.0253642,0.370698,0.324501)"/>
</g>
</svg>
